<svg width="66" height="21" viewBox="0 0 66 21" fill="none" xmlns="http://www.w3.org/2000/svg">
<path d="M0.454102 16V1.07031H5.04785C6.36035 1.07031 7.53271 1.36768 8.56494 1.9624C9.604 2.55029 10.4141 3.39111 10.9951 4.48486C11.5762 5.57178 11.8667 6.80908 11.8667 8.19678V8.88379C11.8667 10.2715 11.5796 11.5054 11.0054 12.5854C10.438 13.6655 9.63477 14.5029 8.5957 15.0977C7.55664 15.6924 6.38428 15.9932 5.07861 16H0.454102ZM3.53027 3.56201V13.5288H5.01709C6.22021 13.5288 7.13965 13.1357 7.77539 12.3496C8.41113 11.5635 8.73584 10.439 8.74951 8.97607V8.18652C8.74951 6.66895 8.43506 5.52051 7.80615 4.74121C7.17725 3.95508 6.25781 3.56201 5.04785 3.56201H3.53027Z" fill="#036635"/>
<path d="M17.0449 16H14.0713V4.90527H17.0449V16ZM13.897 2.03418C13.897 1.58984 14.0439 1.22412 14.3379 0.937012C14.6387 0.649902 15.0454 0.506348 15.5581 0.506348C16.064 0.506348 16.4673 0.649902 16.7681 0.937012C17.0688 1.22412 17.2192 1.58984 17.2192 2.03418C17.2192 2.48535 17.0654 2.85449 16.7578 3.1416C16.457 3.42871 16.0571 3.57227 15.5581 3.57227C15.0591 3.57227 14.6558 3.42871 14.3481 3.1416C14.0474 2.85449 13.897 2.48535 13.897 2.03418Z" fill="#036635"/>
<path d="M22.623 16H19.6494V0.25H22.623V16Z" fill="#036635"/>
<path d="M31.3081 7.68408C30.9048 7.62939 30.5493 7.60205 30.2417 7.60205C29.1206 7.60205 28.3857 7.98145 28.0371 8.74023V16H25.0737V4.90527H27.873L27.9551 6.22803C28.5498 5.20947 29.3735 4.7002 30.4263 4.7002C30.7544 4.7002 31.062 4.74463 31.3491 4.8335L31.3081 7.68408Z" fill="#036635"/>
<path d="M31.9131 10.3501C31.9131 9.24951 32.125 8.26855 32.5488 7.40723C32.9727 6.5459 33.5811 5.87939 34.374 5.40771C35.1738 4.93604 36.1001 4.7002 37.1528 4.7002C38.6499 4.7002 39.8701 5.1582 40.8135 6.07422C41.7637 6.99023 42.2935 8.23438 42.4028 9.80664L42.4233 10.5654C42.4233 12.2676 41.9482 13.6348 40.998 14.667C40.0479 15.6924 38.7729 16.2051 37.1733 16.2051C35.5737 16.2051 34.2954 15.6924 33.3384 14.667C32.3882 13.6416 31.9131 12.2471 31.9131 10.4834V10.3501ZM34.8765 10.5654C34.8765 11.6182 35.0747 12.4248 35.4712 12.9854C35.8677 13.5391 36.4351 13.8159 37.1733 13.8159C37.8911 13.8159 38.4517 13.5425 38.855 12.9956C39.2583 12.4419 39.46 11.5601 39.46 10.3501C39.46 9.31787 39.2583 8.51807 38.855 7.95068C38.4517 7.3833 37.8843 7.09961 37.1528 7.09961C36.4282 7.09961 35.8677 7.3833 35.4712 7.95068C35.0747 8.51123 34.8765 9.38281 34.8765 10.5654Z" fill="#036635"/>
<path d="M46.9761 4.90527L47.0684 6.18701C47.8613 5.1958 48.9243 4.7002 50.2573 4.7002C51.4331 4.7002 52.3081 5.04541 52.8823 5.73584C53.4565 6.42627 53.7505 7.4585 53.7642 8.83252V16H50.8008V8.9043C50.8008 8.27539 50.6641 7.8208 50.3906 7.54053C50.1172 7.25342 49.6626 7.10986 49.0269 7.10986C48.1929 7.10986 47.5674 7.46533 47.1504 8.17627V16H44.187V4.90527H46.9761Z" fill="#036635"/>
<path d="M55.5894 10.3706C55.5894 8.66846 55.9927 7.29785 56.7993 6.25879C57.6128 5.21973 58.7065 4.7002 60.0806 4.7002C61.2974 4.7002 62.2441 5.11719 62.9209 5.95117L63.0439 4.90527H65.7305V15.6309C65.7305 16.6016 65.5083 17.4458 65.064 18.1636C64.6265 18.8813 64.0078 19.4282 63.208 19.8042C62.4082 20.1802 61.4717 20.3682 60.3984 20.3682C59.585 20.3682 58.792 20.2041 58.0195 19.876C57.2471 19.5547 56.6626 19.1377 56.2661 18.625L57.5786 16.8203C58.3169 17.6475 59.2124 18.061 60.2651 18.061C61.0513 18.061 61.6631 17.8491 62.1006 17.4253C62.5381 17.0083 62.7568 16.4136 62.7568 15.6411V15.0464C62.0732 15.8188 61.1743 16.2051 60.0601 16.2051C58.7271 16.2051 57.647 15.6855 56.8198 14.6465C55.9995 13.6006 55.5894 12.2163 55.5894 10.4937V10.3706ZM58.5527 10.5859C58.5527 11.5908 58.7544 12.3804 59.1577 12.9546C59.561 13.522 60.1147 13.8057 60.8188 13.8057C61.7212 13.8057 62.3672 13.4673 62.7568 12.7905V8.125C62.3604 7.44824 61.7212 7.10986 60.8394 7.10986C60.1284 7.10986 59.5679 7.40039 59.1577 7.98145C58.7544 8.5625 58.5527 9.43066 58.5527 10.5859Z" fill="#036635"/>
</svg>
